<mxfile host="app.diagrams.net" modified="2023-11-04T23:40:23.657Z" agent="Mozilla/5.0 (Windows NT 10.0; Win64; x64) AppleWebKit/537.36 (KHTML, like Gecko) Chrome/118.0.0.0 Safari/537.36" etag="005r4vTI-6o6pWDEf6NH" version="22.0.8" type="onedrive">
  <diagram name="Page-1" id="929967ad-93f9-6ef4-fab6-5d389245f69c">
    <mxGraphModel grid="0" page="1" gridSize="10" guides="1" tooltips="1" connect="1" arrows="1" fold="1" pageScale="1.5" pageWidth="1169" pageHeight="826" background="none" math="0" shadow="0">
      <root>
        <mxCell id="0" style=";html=1;" />
        <mxCell id="1" style=";html=1;" parent="0" />
        <mxCell id="o1dRKpXW1gaPcOOA7Lni-16" style="edgeStyle=orthogonalEdgeStyle;rounded=0;orthogonalLoop=1;jettySize=auto;html=1;entryX=0.5;entryY=0;entryDx=0;entryDy=0;exitX=1;exitY=0.5;exitDx=0;exitDy=0;" edge="1" parent="1" source="o1dRKpXW1gaPcOOA7Lni-9" target="o1dRKpXW1gaPcOOA7Lni-10">
          <mxGeometry relative="1" as="geometry" />
        </mxCell>
        <mxCell id="o1dRKpXW1gaPcOOA7Lni-9" value="ConstraintGraph" style="ellipse;whiteSpace=wrap;html=1;" vertex="1" parent="1">
          <mxGeometry x="410" y="320" width="120" height="80" as="geometry" />
        </mxCell>
        <mxCell id="o1dRKpXW1gaPcOOA7Lni-17" style="edgeStyle=orthogonalEdgeStyle;rounded=0;orthogonalLoop=1;jettySize=auto;html=1;entryX=0.5;entryY=0;entryDx=0;entryDy=0;" edge="1" parent="1" source="o1dRKpXW1gaPcOOA7Lni-10" target="o1dRKpXW1gaPcOOA7Lni-11">
          <mxGeometry relative="1" as="geometry" />
        </mxCell>
        <mxCell id="o1dRKpXW1gaPcOOA7Lni-26" style="edgeStyle=orthogonalEdgeStyle;rounded=0;orthogonalLoop=1;jettySize=auto;html=1;entryX=0.5;entryY=1;entryDx=0;entryDy=0;exitX=0;exitY=0.5;exitDx=0;exitDy=0;curved=1;" edge="1" parent="1" source="o1dRKpXW1gaPcOOA7Lni-10" target="o1dRKpXW1gaPcOOA7Lni-9">
          <mxGeometry relative="1" as="geometry" />
        </mxCell>
        <mxCell id="o1dRKpXW1gaPcOOA7Lni-10" value="Backtrack" style="rounded=0;whiteSpace=wrap;html=1;" vertex="1" parent="1">
          <mxGeometry x="530" y="420" width="120" height="60" as="geometry" />
        </mxCell>
        <mxCell id="o1dRKpXW1gaPcOOA7Lni-18" style="edgeStyle=orthogonalEdgeStyle;rounded=0;orthogonalLoop=1;jettySize=auto;html=1;entryX=0.5;entryY=0;entryDx=0;entryDy=0;exitX=1;exitY=0.5;exitDx=0;exitDy=0;" edge="1" parent="1" source="o1dRKpXW1gaPcOOA7Lni-11" target="o1dRKpXW1gaPcOOA7Lni-12">
          <mxGeometry relative="1" as="geometry" />
        </mxCell>
        <mxCell id="o1dRKpXW1gaPcOOA7Lni-25" style="edgeStyle=orthogonalEdgeStyle;rounded=0;orthogonalLoop=1;jettySize=auto;html=1;entryX=0.5;entryY=1;entryDx=0;entryDy=0;curved=1;" edge="1" parent="1" source="o1dRKpXW1gaPcOOA7Lni-11" target="o1dRKpXW1gaPcOOA7Lni-10">
          <mxGeometry relative="1" as="geometry" />
        </mxCell>
        <mxCell id="o1dRKpXW1gaPcOOA7Lni-11" value="ConstraintGraph" style="ellipse;whiteSpace=wrap;html=1;" vertex="1" parent="1">
          <mxGeometry x="680" y="480" width="120" height="80" as="geometry" />
        </mxCell>
        <mxCell id="o1dRKpXW1gaPcOOA7Lni-24" style="edgeStyle=orthogonalEdgeStyle;rounded=0;orthogonalLoop=1;jettySize=auto;html=1;entryX=0.5;entryY=1;entryDx=0;entryDy=0;curved=1;exitX=0;exitY=0.5;exitDx=0;exitDy=0;" edge="1" parent="1" source="o1dRKpXW1gaPcOOA7Lni-12" target="o1dRKpXW1gaPcOOA7Lni-11">
          <mxGeometry relative="1" as="geometry" />
        </mxCell>
        <mxCell id="o1dRKpXW1gaPcOOA7Lni-12" value="Backtrack" style="rounded=0;whiteSpace=wrap;html=1;" vertex="1" parent="1">
          <mxGeometry x="800" y="590" width="120" height="60" as="geometry" />
        </mxCell>
        <mxCell id="o1dRKpXW1gaPcOOA7Lni-20" style="edgeStyle=orthogonalEdgeStyle;rounded=0;orthogonalLoop=1;jettySize=auto;html=1;" edge="1" parent="1" source="o1dRKpXW1gaPcOOA7Lni-14" target="o1dRKpXW1gaPcOOA7Lni-15">
          <mxGeometry relative="1" as="geometry" />
        </mxCell>
        <mxCell id="o1dRKpXW1gaPcOOA7Lni-23" style="edgeStyle=orthogonalEdgeStyle;rounded=0;orthogonalLoop=1;jettySize=auto;html=1;entryX=0.5;entryY=1;entryDx=0;entryDy=0;curved=1;" edge="1" parent="1" source="o1dRKpXW1gaPcOOA7Lni-14" target="o1dRKpXW1gaPcOOA7Lni-12">
          <mxGeometry relative="1" as="geometry" />
        </mxCell>
        <mxCell id="o1dRKpXW1gaPcOOA7Lni-14" value="ConstraintGraph" style="ellipse;whiteSpace=wrap;html=1;" vertex="1" parent="1">
          <mxGeometry x="930" y="670" width="120" height="80" as="geometry" />
        </mxCell>
        <mxCell id="o1dRKpXW1gaPcOOA7Lni-22" style="edgeStyle=orthogonalEdgeStyle;rounded=0;orthogonalLoop=1;jettySize=auto;html=1;entryX=0.5;entryY=1;entryDx=0;entryDy=0;curved=1;" edge="1" parent="1" source="o1dRKpXW1gaPcOOA7Lni-15" target="o1dRKpXW1gaPcOOA7Lni-14">
          <mxGeometry relative="1" as="geometry" />
        </mxCell>
        <mxCell id="o1dRKpXW1gaPcOOA7Lni-15" value="Backtrack" style="rounded=0;whiteSpace=wrap;html=1;" vertex="1" parent="1">
          <mxGeometry x="1060" y="770" width="120" height="60" as="geometry" />
        </mxCell>
        <mxCell id="o1dRKpXW1gaPcOOA7Lni-19" style="edgeStyle=orthogonalEdgeStyle;rounded=0;orthogonalLoop=1;jettySize=auto;html=1;entryX=0.558;entryY=0.013;entryDx=0;entryDy=0;entryPerimeter=0;" edge="1" parent="1" source="o1dRKpXW1gaPcOOA7Lni-12" target="o1dRKpXW1gaPcOOA7Lni-14">
          <mxGeometry relative="1" as="geometry" />
        </mxCell>
        <mxCell id="o1dRKpXW1gaPcOOA7Lni-27" value="Calls" style="text;html=1;strokeColor=none;fillColor=none;align=center;verticalAlign=middle;whiteSpace=wrap;rounded=0;" vertex="1" parent="1">
          <mxGeometry x="550" y="320" width="60" height="30" as="geometry" />
        </mxCell>
        <mxCell id="o1dRKpXW1gaPcOOA7Lni-28" value="Calls" style="text;html=1;strokeColor=none;fillColor=none;align=center;verticalAlign=middle;whiteSpace=wrap;rounded=0;" vertex="1" parent="1">
          <mxGeometry x="820" y="480" width="60" height="30" as="geometry" />
        </mxCell>
        <mxCell id="o1dRKpXW1gaPcOOA7Lni-29" value="Calls" style="text;html=1;strokeColor=none;fillColor=none;align=center;verticalAlign=middle;whiteSpace=wrap;rounded=0;" vertex="1" parent="1">
          <mxGeometry x="1070" y="670" width="60" height="30" as="geometry" />
        </mxCell>
        <mxCell id="o1dRKpXW1gaPcOOA7Lni-30" value="Instantiates" style="text;html=1;strokeColor=none;fillColor=none;align=center;verticalAlign=middle;whiteSpace=wrap;rounded=0;" vertex="1" parent="1">
          <mxGeometry x="660" y="410" width="60" height="30" as="geometry" />
        </mxCell>
        <mxCell id="o1dRKpXW1gaPcOOA7Lni-31" value="Instantiates" style="text;html=1;strokeColor=none;fillColor=none;align=center;verticalAlign=middle;whiteSpace=wrap;rounded=0;" vertex="1" parent="1">
          <mxGeometry x="930" y="590" width="60" height="30" as="geometry" />
        </mxCell>
        <mxCell id="o1dRKpXW1gaPcOOA7Lni-33" value="Returns to" style="text;html=1;strokeColor=none;fillColor=none;align=center;verticalAlign=middle;whiteSpace=wrap;rounded=0;" vertex="1" parent="1">
          <mxGeometry x="960" y="790" width="60" height="30" as="geometry" />
        </mxCell>
        <mxCell id="o1dRKpXW1gaPcOOA7Lni-34" value="Returns to" style="text;html=1;strokeColor=none;fillColor=none;align=center;verticalAlign=middle;whiteSpace=wrap;rounded=0;" vertex="1" parent="1">
          <mxGeometry x="820" y="695" width="60" height="30" as="geometry" />
        </mxCell>
        <mxCell id="o1dRKpXW1gaPcOOA7Lni-35" value="Returns to" style="text;html=1;strokeColor=none;fillColor=none;align=center;verticalAlign=middle;whiteSpace=wrap;rounded=0;" vertex="1" parent="1">
          <mxGeometry x="690" y="604.5" width="60" height="30" as="geometry" />
        </mxCell>
        <mxCell id="o1dRKpXW1gaPcOOA7Lni-36" value="Returns to" style="text;html=1;strokeColor=none;fillColor=none;align=center;verticalAlign=middle;whiteSpace=wrap;rounded=0;" vertex="1" parent="1">
          <mxGeometry x="550" y="520" width="60" height="30" as="geometry" />
        </mxCell>
        <mxCell id="o1dRKpXW1gaPcOOA7Lni-37" value="Returns to" style="text;html=1;strokeColor=none;fillColor=none;align=center;verticalAlign=middle;whiteSpace=wrap;rounded=0;" vertex="1" parent="1">
          <mxGeometry x="410" y="440" width="60" height="30" as="geometry" />
        </mxCell>
      </root>
    </mxGraphModel>
  </diagram>
</mxfile>
